<mxfile host="65bd71144e">
    <diagram id="NSxnxJi8opfl1aLB7LIo" name="Page-1">
        <mxGraphModel dx="2069" dy="1141" grid="1" gridSize="10" guides="1" tooltips="1" connect="1" arrows="1" fold="1" page="1" pageScale="1" pageWidth="827" pageHeight="1169" math="0" shadow="0">
            <root>
                <mxCell id="0"/>
                <mxCell id="1" parent="0"/>
                <object label="" id="4">
                    <mxCell style="edgeStyle=none;html=1;" edge="1" parent="1" source="2" target="3">
                        <mxGeometry relative="1" as="geometry"/>
                    </mxCell>
                </object>
                <mxCell id="5" value="GetTypeId" style="edgeLabel;html=1;align=center;verticalAlign=middle;resizable=0;points=[];" vertex="1" connectable="0" parent="4">
                    <mxGeometry x="-0.3541" y="1" relative="1" as="geometry">
                        <mxPoint as="offset"/>
                    </mxGeometry>
                </mxCell>
                <mxCell id="2" value="&lt;a href=&quot;https://www.revitapidocs.com/2020.1/5882a277-cba2-cefa-f5fb-2f43f247b4dc.htmhttps://www.revitapidocs.com/2020.1/5882a277-cba2-cefa-f5fb-2f43f247b4dc.htm&quot;&gt;Труба&lt;/a&gt;" style="rounded=0;whiteSpace=wrap;html=1;" vertex="1" parent="1">
                    <mxGeometry x="40" y="170" width="120" height="60" as="geometry"/>
                </mxCell>
                <mxCell id="7" value="" style="edgeStyle=none;html=1;" edge="1" parent="1" source="3" target="6">
                    <mxGeometry relative="1" as="geometry"/>
                </mxCell>
                <mxCell id="8" value="RoutingPreferenceManager" style="edgeLabel;html=1;align=center;verticalAlign=middle;resizable=0;points=[];" vertex="1" connectable="0" parent="7">
                    <mxGeometry x="-0.1817" y="-2" relative="1" as="geometry">
                        <mxPoint as="offset"/>
                    </mxGeometry>
                </mxCell>
                <mxCell id="3" value="Тип трубы&lt;br&gt;&lt;a href=&quot;https://www.revitapidocs.com/2020.1/3935aa51-c85e-021e-2917-84929068a91e.htm&quot;&gt;PIpeType&lt;/a&gt;" style="rounded=0;whiteSpace=wrap;html=1;" vertex="1" parent="1">
                    <mxGeometry x="250" y="170" width="120" height="60" as="geometry"/>
                </mxCell>
                <mxCell id="10" value="" style="edgeStyle=none;html=1;" edge="1" parent="1" source="6" target="9">
                    <mxGeometry relative="1" as="geometry"/>
                </mxCell>
                <mxCell id="6" value="&lt;a href=&quot;https://www.revitapidocs.com/2020.1/4e7dff29-4a52-b18a-4e58-04572844dcc1.htm&quot;&gt;RoutingPreferenceManager&lt;/a&gt;&lt;br&gt;&lt;br&gt;" style="rounded=0;whiteSpace=wrap;html=1;" vertex="1" parent="1">
                    <mxGeometry x="560" y="170" width="160" height="60" as="geometry"/>
                </mxCell>
                <mxCell id="9" value="&lt;h4 style=&quot;box-sizing: border-box; font-family: &amp;quot;Open Sans&amp;quot;, &amp;quot;Helvetica Neue&amp;quot;, Helvetica, Arial, sans-serif; font-weight: 300; line-height: 22px; color: rgb(34, 34, 34); margin-top: 9.5px; margin-bottom: 0px; font-size: 18px; overflow: hidden; text-overflow: ellipsis; width: 965.25px; text-align: start; background-color: rgb(255, 255, 255);&quot; class=&quot;truncate&quot; id=&quot;api-title&quot;&gt;&lt;a href=&quot;https://www.revitapidocs.com/2020.1/79896fd9-e90c-6561-3bc4-7cefd4692ae5.htmhttps://www.revitapidocs.com/2020.1/79896fd9-e90c-6561-3bc4-7cefd4692ae5.htm&quot;&gt;RoutingPreferenceRuleGroupType&lt;/a&gt;&lt;/h4&gt;" style="whiteSpace=wrap;html=1;rounded=0;" vertex="1" parent="1">
                    <mxGeometry x="580" y="30" width="260" height="60" as="geometry"/>
                </mxCell>
            </root>
        </mxGraphModel>
    </diagram>
</mxfile>